<svg width="96" height="96" viewBox="0 0 96 96" fill="none" xmlns="http://www.w3.org/2000/svg">
  <defs>
    <radialGradient id="iconGlow" cx="0" cy="0" r="1" gradientUnits="userSpaceOnUse" gradientTransform="translate(24 20) rotate(45) scale(80)">
      <stop offset="0" stop-color="#38BDF8" />
      <stop offset="0.5" stop-color="#818CF8" />
      <stop offset="1" stop-color="#EC4899" />
    </radialGradient>
    <linearGradient id="iconHighlight" x1="20" y1="20" x2="76" y2="76" gradientUnits="userSpaceOnUse">
      <stop offset="0" stop-color="#F8FAFC" stop-opacity="0.9" />
      <stop offset="1" stop-color="#E0F2FE" stop-opacity="0.05" />
    </linearGradient>
  </defs>
  <rect x="10" y="10" width="76" height="76" rx="24" fill="url(#iconGlow)" />
  <rect x="16" y="16" width="64" height="64" rx="20" fill="#0F172A" opacity="0.35" />
  <path d="M66 48.5C66 59.5 58 65 50 65C43.5 65 38.2 61.6 37 55.9L43.5 54.3C44.3 57.7 46.8 59.6 50.1 59.6C53.6 59.6 57.1 57.2 57.1 52.9C57.1 48.9 54.6 47.2 48.8 45.5C39.6 43 35.3 39.5 35.3 33.2C35.3 26.9 40.7 21.5 48.9 21.5C55.3 21.5 61.1 24.7 63 31.9L56.7 33.5C56.2 30.9 54.3 28.9 49 28.9C45 28.9 42.6 31.3 42.6 34.1C42.6 36.9 44.3 38.6 50.2 40.3C58.4 42.8 66 45.3 66 48.5Z" fill="url(#iconHighlight)" />
</svg>
