<svg width="200" height="48" viewBox="0 0 200 48" fill="none" xmlns="http://www.w3.org/2000/svg">
  <defs>
    <linearGradient id="brandGradient" x1="0" y1="0" x2="200" y2="48" gradientUnits="userSpaceOnUse">
      <stop offset="0" stop-color="#38BDF8" />
      <stop offset="0.5" stop-color="#818CF8" />
      <stop offset="1" stop-color="#EC4899" />
    </linearGradient>
    <filter id="glow" x="-20%" y="-20%" width="140%" height="140%" color-interpolation-filters="sRGB">
      <feGaussianBlur stdDeviation="3" result="coloredBlur" />
      <feMerge>
        <feMergeNode in="coloredBlur" />
        <feMergeNode in="SourceGraphic" />
      </feMerge>
    </filter>
  </defs>
  <rect x="2" y="6" width="36" height="36" rx="18" fill="url(#brandGradient)" filter="url(#glow)" opacity="0.9" />
  <path d="M29 24C29 30 24 33 20 33C16.6 33 13.8 31.2 13 27.8L16.8 26.9C17.3 28.8 18.6 29.8 20.2 29.8C21.9 29.8 23.6 28.7 23.6 26.7C23.6 24.9 22.4 24.1 19.5 23.2C14.8 21.9 12.6 20 12.6 16.5C12.6 13 15.5 10 19.7 10C23.1 10 26.1 11.7 27.1 15.7L23.4 16.6C23.1 15.1 22 13.9 19.8 13.9C18 13.9 16.7 15.1 16.7 16.6C16.7 18.1 17.6 18.9 20.6 19.8C24.9 21.1 29 22.4 29 24Z" fill="#0B1120" />
  <text x="56" y="31" font-family="'Inter', 'Segoe UI', sans-serif" font-size="22" font-weight="600" letter-spacing="0.12em" style="text-transform:uppercase" fill="url(#brandGradient)">
    Simplify My Life
  </text>
</svg>
