<svg xmlns="http://www.w3.org/2000/svg" viewBox="0 0 1200 630" role="img" aria-labelledby="title desc">
  <title id="title">Simplify My Life social preview</title>
  <desc id="desc">A vibrant pixelswift generated card highlighting Simplify My Life.</desc>
  <defs>
    <linearGradient id="bgGradient" x1="0" y1="0" x2="1" y2="1">
      <stop offset="0%" stop-color="#3E2AD3" />
      <stop offset="55%" stop-color="#7A4BFF" />
      <stop offset="100%" stop-color="#F27CC8" />
    </linearGradient>
    <radialGradient id="orbOne" cx="0" cy="0" r="1" gradientTransform="translate(0.18 0.25) rotate(45) scale(0.7)">
      <stop offset="0%" stop-color="#FFEA83" stop-opacity="0.9" />
      <stop offset="100%" stop-color="#FFD166" stop-opacity="0" />
    </radialGradient>
    <radialGradient id="orbTwo" cx="0" cy="0" r="1" gradientTransform="translate(0.86 0.75) rotate(45) scale(0.6)">
      <stop offset="0%" stop-color="#7BFFDA" stop-opacity="0.8" />
      <stop offset="100%" stop-color="#7BFFDA" stop-opacity="0" />
    </radialGradient>
    <filter id="shadow" x="-10%" y="-10%" width="120%" height="120%" color-interpolation-filters="sRGB">
      <feDropShadow dx="0" dy="24" stdDeviation="32" flood-color="#140B34" flood-opacity="0.25" />
    </filter>
  </defs>
  <rect width="1200" height="630" fill="url(#bgGradient)" rx="40" />
  <rect width="1200" height="630" fill="url(#orbOne)" />
  <rect width="1200" height="630" fill="url(#orbTwo)" />
  <g filter="url(#shadow)">
    <rect x="120" y="140" width="960" height="350" rx="32" fill="rgba(8, 5, 35, 0.55)" />
  </g>
  <g transform="translate(170 190)">
    <circle cx="70" cy="70" r="70" fill="#1E0A45" opacity="0.3" />
    <circle cx="70" cy="70" r="62" fill="#241459" />
    <path
      d="M70 28c-23.2 0-42 18.8-42 42s18.8 42 42 42 42-18.8 42-42S93.2 28 70 28Zm17.8 55.8-15.7-9a4 4 0 0 1-2-3.4V52.6a4 4 0 0 1 6-3.4l15.7 9a4 4 0 0 1 0 6.8l-15.7 9a4 4 0 0 1-6-3.4v-6.8l15.7 9a4 4 0 0 1 0 6.8Z"
      fill="#F6F3FF"
    />
  </g>
  <g transform="translate(340 205)">
    <text x="0" y="64" fill="#F6F3FF" font-family="'Inter', 'Segoe UI', sans-serif" font-size="60" font-weight="600" letter-spacing="0.02em">
      Simplify My Life
    </text>
    <text x="0" y="132" fill="#E1D9FF" font-family="'Inter', 'Segoe UI', sans-serif" font-size="30" letter-spacing="0.08em" text-transform="uppercase">
      Crafted with pixelswift
    </text>
    <text x="0" y="200" fill="#F6F3FF" font-family="'Inter', 'Segoe UI', sans-serif" font-size="30">
      Playful tools and thoughtful helpers for everyday wins.
    </text>
    <text x="0" y="260" fill="#CFC2FF" font-family="'Inter', 'Segoe UI', sans-serif" font-size="28">
      pixelswift.simplifymylife.app
    </text>
  </g>
</svg>
